<svg width="1280" height="915" viewBox="0 0 1280 915" fill="none" xmlns="http://www.w3.org/2000/svg">
<path d="M-6.00127 101.21H1310.52V862.338H-6.00127V101.21Z" fill="#F7EDDB"/>
<path fill-rule="evenodd" clip-rule="evenodd" d="M618.187 632.259C666.901 626.115 713.108 645.733 752.838 669.069C801.573 697.694 868.124 728.412 863.953 776.614C859.795 824.646 784.699 842.513 735.426 870.251C698.628 890.967 663.188 916.027 618.187 914.967C574.174 913.931 543.07 885.796 507.665 864.887C461.438 837.585 380.453 822.449 383.921 776.614C387.431 730.239 474.209 726.782 520.265 698.403C555.45 676.722 574.291 637.796 618.187 632.259Z" fill="#606C38"/>
<path fill-rule="evenodd" clip-rule="evenodd" d="M168.148 539.041C227.27 547.773 220.51 621.167 262.553 655.57C303.545 689.112 395.719 684.575 402.915 731.144C409.98 776.869 330.351 795.841 289.204 828.054C248.924 859.59 224.427 917.048 168.148 914.944C111.908 912.841 95.8562 852.691 57.8952 819.405C23.2179 788.999 -35.9159 772.076 -41.4693 731.144C-47.2727 688.369 -4.33099 653.78 31.028 621.375C70.1028 585.565 109.738 530.415 168.148 539.041Z" fill="#BC6C25"/>
<path fill-rule="evenodd" clip-rule="evenodd" d="M1060.03 118.603C1099.17 117.396 1136.1 125.825 1168.9 142.969C1212.71 165.862 1262.08 189.268 1273.48 230.149C1286.81 277.957 1274.83 332.878 1231.51 367.459C1188.22 402.009 1121.14 399.66 1060.03 400.513C997.316 401.388 921.419 411.703 882.473 372.33C844.221 333.658 875.14 277.707 891.517 230.149C902.703 197.667 926.8 170.902 959.232 149.434C988.051 130.358 1022.67 119.755 1060.03 118.603Z" fill="#283618"/>
<path fill-rule="evenodd" clip-rule="evenodd" d="M774.661 1.36277C833.672 -8.56569 888.061 37.6315 919.191 79.0125C945.048 113.384 924.558 154.847 920.201 194.829C916.473 229.052 922.802 265.248 895.98 292.046C866.622 321.379 821.347 344.02 774.661 340.244C730.235 336.651 706.569 299.987 675.588 274.22C645.601 249.28 598.773 229.452 599.823 194.829C600.868 160.402 655.085 147.099 680.291 119.207C715.805 79.909 715.404 11.3328 774.661 1.36277Z" fill="#606C38"/>
<path fill-rule="evenodd" clip-rule="evenodd" d="M216.506 132.525C258.297 135.934 297.729 139.644 333.891 156.743C386.671 181.699 454.422 202.517 466.284 250.631C479.045 302.388 448.855 364.516 391.558 390.644C337.953 415.089 278.193 365.749 216.506 364.531C158.179 363.38 96.4738 411.993 49.885 383.901C3.37047 355.854 23.3888 297.1 27.6102 250.631C31.3989 208.926 31.2704 161.169 72.4583 135.416C111.797 110.82 166.832 128.473 216.506 132.525Z" fill="#283618"/>
<path fill-rule="evenodd" clip-rule="evenodd" d="M1022.94 595.23C1073.73 592.518 1122.67 607.464 1161.83 633.464C1205.36 662.37 1246.32 699.27 1247.74 744.498C1249.19 790.452 1210.76 829.667 1169.01 861.274C1128.6 891.868 1078.42 918.239 1022.94 914.676C970.216 911.291 936.812 873.137 898.588 843.91C858.906 813.568 799.737 788.392 800.375 744.498C801.012 700.72 859.489 675.507 901.444 647.369C938.051 622.818 975.262 597.776 1022.94 595.23Z" fill="#283618"/>
<path fill-rule="evenodd" clip-rule="evenodd" d="M766.404 368.354C806.499 366.026 852.832 355.242 881.853 377.491C911.04 399.867 900.892 437.531 898.754 469.821C896.781 499.622 892.894 529.152 870.241 552.866C843.967 580.369 809.505 605.243 766.404 608.366C720.259 611.709 668.895 599.516 641.88 569.411C616.721 541.374 637.358 504.124 642.081 469.821C645.979 441.508 641.656 410.335 666.584 389.99C691.667 369.518 730.661 370.43 766.404 368.354Z" fill="#283618"/>
<path fill-rule="evenodd" clip-rule="evenodd" d="M288.243 416.425C302.133 368.678 352.825 332.125 402.932 310.346C455.39 287.544 522.37 268.298 561.884 297.484C600.037 325.665 562.922 388.168 570.999 434.483C577.214 470.121 613.741 495.526 602.898 532.661C589.842 577.38 556.422 621.147 510.103 643.049C460.892 666.32 398.141 674.506 359.796 647.616C324.028 622.533 353.339 565.073 340.707 524.258C328.344 484.312 275.625 459.802 288.243 416.425Z" fill="#BC6C25"/>
<path fill-rule="evenodd" clip-rule="evenodd" d="M988.527 459.083C1006.39 418.563 1047.47 381.712 1100.11 372.983C1147.45 365.132 1186.65 398.163 1226.95 419.54C1254.15 433.97 1272.29 453.318 1291.43 474.459C1318.09 503.903 1369.84 529.523 1358.36 564.673C1346.9 599.787 1288.99 608.363 1244.89 616.994C1210.48 623.729 1178.28 611.92 1143.44 606.737C1096.11 599.694 1039 611.25 1008.05 581.755C973.596 548.913 970.713 499.485 988.527 459.083Z" fill="#BC6C25"/>
</svg>
